# xmcd
#
# Track frame offsets:
#	187
#	14122
#	26370
#	41922
#
# Disc length: 1051 seconds
#
# Revision: 1
# Processed by: cddbd v1.5PL3 Copyright (c) Steve Scherf et al.
# Submitted via: CDex 1.50Beta5
#
DISCID=2e041904
DTITLE=THE STREET BEATS - BEST MINDS Disc 1
DYEAR=1996
DGENRE=Rock
TTITLE0=十代の衝動
TTITLE1=RESCUE RESCUE
TTITLE2=TWO BLACK GUITARS
TTITLE3=いのちの音
EXTD=
EXTT0=
EXTT1=
EXTT2=
EXTT3=
PLAYORDER=
